<?xml version="1.0" standalone="no"?>
<!DOCTYPE svg PUBLIC "-//W3C//DTD SVG 20010904//EN"
 "http://www.w3.org/TR/2001/REC-SVG-20010904/DTD/svg10.dtd">
<svg version="1.0" xmlns="http://www.w3.org/2000/svg"
 width="94.000000pt" height="81.000000pt" viewBox="0 0 94.000000 81.000000"
 preserveAspectRatio="xMidYMid meet">

<g transform="translate(0.000000,81.000000) scale(0.100000,-0.100000)"
fill="#000000" stroke="none">
<path d="M0 405 l0 -405 470 0 470 0 0 405 0 405 -470 0 -470 0 0 -405z m470
345 c0 -22 -10 -41 -34 -65 -49 -48 -80 -134 -79 -217 0 -75 -9 -87 -27 -34
-21 65 6 154 78 256 l17 25 -30 -22 c-76 -54 -107 -119 -106 -222 1 -35 3 -66
6 -69 8 -8 88 -21 133 -22 35 0 42 -3 42 -20 0 -24 -17 -25 -141 -9 -188 23
-310 82 -296 141 9 35 54 66 116 81 42 9 53 17 63 42 7 16 30 49 52 73 53 58
114 89 179 91 24 1 27 -3 27 -29z m145 -1 c45 -21 104 -83 91 -96 -4 -4 -23
10 -42 30 -20 20 -41 37 -47 37 -6 0 -7 -3 -4 -7 9 -9 -44 -64 -55 -57 -4 3
-8 0 -8 -7 0 -15 -42 -59 -58 -59 -9 0 -12 24 -11 96 l1 96 44 -6 c24 -3 64
-15 89 -27z m233 19 c17 -17 15 -48 -5 -70 -20 -22 -41 -23 -65 -1 -20 18 -23
36 -8 64 12 22 59 26 78 7z m-188 -100 c0 -15 -180 -198 -195 -198 -6 0 -26
15 -44 34 -29 30 -31 37 -21 56 l12 22 27 -26 c15 -14 31 -26 37 -26 5 0 43
34 84 75 71 72 100 90 100 63z m-520 -32 c0 -8 -4 -17 -9 -21 -12 -7 -24 12
-16 25 9 15 25 12 25 -4z m575 -43 c23 -53 20 -85 -6 -81 -27 4 -54 81 -38
110 13 24 26 15 44 -29z m123 36 c-2 -6 -8 -10 -13 -10 -5 0 -11 4 -13 10 -2
6 4 11 13 11 9 0 15 -5 13 -11z m-178 -106 c0 -19 -5 -23 -29 -23 -60 0 -66 9
-29 47 30 31 34 32 45 16 7 -9 13 -27 13 -40z m208 25 c118 -56 49 -144 -142
-183 -44 -9 -115 -19 -158 -22 -74 -6 -78 -5 -78 15 0 18 8 21 78 27 213 19
336 71 288 124 -9 10 -34 23 -56 30 -24 7 -40 18 -40 27 0 19 45 12 108 -18z
m-212 -84 c-3 -9 -6 -20 -6 -25 0 -26 -146 -57 -167 -35 -4 4 10 23 32 41 35
30 47 34 94 35 44 0 52 -3 47 -16z m-508 -157 c2 -10 -3 -17 -12 -17 -18 0
-29 16 -21 31 9 14 29 6 33 -14z m144 -13 c14 -22 146 -47 212 -41 74 7 104
-5 55 -22 -47 -16 -147 -13 -197 8 -49 19 -112 66 -112 83 0 11 29 -8 42 -28z
m556 13 c4 -20 -25 -34 -40 -19 -15 15 -1 44 19 40 10 -2 19 -11 21 -21z
m-594 -143 c9 -8 16 -22 16 -29 0 -18 -28 -45 -46 -45 -8 0 -14 -9 -14 -20 0
-13 -7 -20 -20 -20 -17 0 -20 7 -20 49 0 27 3 56 6 65 8 21 58 21 78 0z m66
-40 c0 -54 1 -55 26 -52 22 2 30 12 47 56 11 28 26 52 34 52 12 0 39 -49 57
-107 5 -17 3 -23 -7 -23 -8 0 -17 7 -21 15 -7 19 -45 19 -52 0 -5 -11 -21 -15
-60 -15 l-54 0 0 65 c0 51 3 65 15 65 12 0 15 -13 15 -56z m246 6 l22 -45 4
44 c1 25 9 46 16 49 9 3 12 -14 12 -62 0 -58 -2 -66 -19 -66 -11 0 -23 12 -31
30 -7 16 -18 35 -26 41 -12 9 -14 4 -14 -30 0 -22 -4 -41 -10 -41 -6 0 -10 29
-10 66 0 57 2 65 17 62 10 -2 28 -23 39 -48z m112 -18 c2 -51 0 -62 -13 -62
-12 0 -15 13 -15 66 0 48 3 65 13 62 7 -3 13 -28 15 -66z m112 58 c0 -6 -7
-13 -15 -16 -9 -4 -15 -19 -15 -39 0 -18 -3 -40 -6 -49 -12 -31 -24 -15 -24
33 0 40 -3 50 -20 54 -39 10 -20 27 30 27 28 0 50 -5 50 -10z"/>
<path d="M363 724 c-77 -38 -143 -155 -143 -254 0 -39 4 -52 19 -60 33 -17 40
-12 28 20 -16 41 4 148 38 206 16 27 46 58 73 75 49 31 39 39 -15 13z"/>
<path d="M140 532 c-47 -23 -48 -58 -1 -89 51 -34 61 -31 50 17 -5 22 -6 52
-3 65 7 30 0 31 -46 7z"/>
<path d="M210 135 c0 -8 7 -15 15 -15 8 0 15 7 15 15 0 8 -7 15 -15 15 -8 0
-15 -7 -15 -15z"/>
<path d="M420 143 c0 -6 -3 -18 -6 -27 -4 -11 -1 -16 10 -16 9 0 16 6 16 13 0
16 -20 46 -20 30z"/>
</g>
</svg>
